<svg width="32" height="32" viewBox="0 0 32 32" fill="none" xmlns="http://www.w3.org/2000/svg">
  <path d="M28.622 8.959C27.097 7.106 24.562 6 21.841 6c-2.271 0-4.413.77-5.945 2.102C14.364 6.771 12.223 6 9.952 6c-2.72 0-5.256 1.106-6.78 2.959-.112.135-.172.294-.172.457v14.762c0 .361.29.68.714.785.097.025.196.037.294.037.329 0 .645-.133.836-.364 1.167-1.418 3.029-2.232 5.108-2.232 2.078 0 3.94.813 5.108 2.232.025.032.06.055.09.082.02.02.038.038.061.055.06.043.126.079.197.108.147.068.307.118.489.118.181 0 .342-.05.488-.118.071-.03.136-.065.197-.108.023-.017.04-.037.061-.055.03-.027.065-.051.09-.082 1.168-1.418 3.03-2.232 5.109-2.232 2.08 0 3.94.813 5.107 2.232.248.3.708.435 1.13.327.424-.105.713-.424.713-.786V9.417c0-.163-.06-.322-.17-.458zM9.951 20.76c-1.808 0-3.534.489-4.936 1.36V9.676c1.173-1.295 2.956-2.032 4.937-2.032 1.983 0 3.763.747 4.936 2.047v12.441c-1.403-.874-3.126-1.37-4.936-1.37zm16.826 1.36c-1.402-.871-3.128-1.36-4.936-1.36-1.811 0-3.534.497-4.937 1.37l-.001-12.44c1.173-1.3 2.952-2.048 4.937-2.048 1.98 0 3.763.738 4.937 2.033V22.12z" fill="#000"/>
</svg>
